<svg width="200" height="31" viewBox="0 0 200 31" fill="none" xmlns="http://www.w3.org/2000/svg">
<path fill-rule="evenodd" clip-rule="evenodd" d="M100.711 9.73853C105.578 11.4776 107.92 15.8578 106.429 20.4938C105.325 23.9274 102.625 25.5825 99.3769 26.3715C97.3435 26.8654 95.226 27.0084 93.1467 27.309H92.0541C89.9735 27.011 87.8682 26.827 85.8223 26.3724C84.571 26.0949 83.3248 25.544 82.2244 24.8701C76.9478 21.6371 76.987 14.0562 82.2485 10.8019C84.243 9.5674 86.4527 8.97993 88.7456 8.75315C92.7863 8.35299 96.8147 8.34619 100.711 9.73853ZM98.777 19.1494C98.8882 18.1453 98.8458 17.0929 98.6816 16.0943C98.2518 13.4795 96.7508 12.1405 94.1311 11.882C93.6611 11.8358 93.1885 11.8134 92.6169 11.773C92.0628 11.8121 91.4057 11.8228 90.7587 11.9095C88.4182 12.2227 86.9346 13.4529 86.5532 15.7106C86.1083 18.3439 85.8991 21.0182 88.379 22.9243C88.798 23.2465 89.3425 23.5182 89.8559 23.5781C91.2159 23.7372 92.6015 23.9168 93.9579 23.8184C96.939 23.602 98.449 22.1081 98.777 19.1494ZM195.236 21.7765C196.402 23.7463 197.915 24.391 200 24.2286V26.6487H184.957V24.3289C185.491 24.2597 186.058 24.1959 186.622 24.1112C187.238 24.0177 188.113 23.9035 187.92 23.1452C187.742 22.4407 187.045 21.3598 186.533 21.3343C183.228 21.17 179.907 21.1687 176.602 21.3336C176.083 21.3602 175.393 22.44 175.193 23.1504C174.971 23.9362 175.837 24.0429 176.453 24.1338C176.95 24.2073 177.45 24.2542 178.001 24.3182V26.5591H167.026V24.4175C167.119 24.3354 167.147 24.2898 167.172 24.2914C169.468 24.4606 170.674 23.1433 171.692 21.2505C173.057 18.7088 174.669 16.302 176.166 13.8314C177.045 12.3805 176.739 11.8222 175.026 11.6727C174.306 11.61 173.589 11.5097 172.82 11.4207V9.09509H175.69C178.894 9.09509 182.099 9.14167 185.302 9.0718C186.542 9.04463 187.34 9.48523 188 10.5217C190.397 14.2837 192.966 17.9398 195.236 21.7765ZM178.098 18.0919H184.915C183.712 16.2415 182.608 14.5415 181.4 12.684C180.258 14.5544 179.22 16.2547 178.098 18.0919ZM63.7245 11.4246V9.1682H77.5071V11.4162C76.8739 11.499 76.2693 11.6164 75.6601 11.6494C74.5932 11.7073 74.0734 12.2207 74.0785 13.3135C74.092 16.3566 74.0882 19.3995 74.0811 22.4426C74.0788 23.4733 74.5614 23.9934 75.5891 24.0572C76.2044 24.095 76.8148 24.2131 77.5001 24.305V26.5397H63.7332V24.3043C64.3831 24.2176 65.0546 24.1002 65.7312 24.0442C66.6667 23.9666 67.104 23.4302 67.1352 22.5416C67.1673 21.628 67.1422 20.7122 67.1422 19.6951H56.3844C56.3844 20.7889 56.2877 21.9208 56.4374 23.0187C56.4894 23.3979 57.106 23.8362 57.5522 23.9909C58.1903 24.2108 58.9089 24.1956 59.6832 24.2917V26.5335H45.9681V24.3082C46.6659 24.2141 47.3065 24.0989 47.9522 24.0478C48.8232 23.9789 49.336 23.515 49.3446 22.6622C49.3771 19.4742 49.3784 16.2851 49.3514 13.0974C49.3437 12.1884 48.7969 11.7206 47.8841 11.6578C47.2718 11.6155 46.6636 11.509 45.9571 11.4191V9.16885H59.6896V11.412C59.0359 11.498 58.3972 11.6083 57.7543 11.6607C56.8383 11.7352 56.3455 12.2185 56.3163 13.1291C56.2861 14.0737 56.3095 15.0206 56.3095 16.0396H67.1348C67.1348 15.0225 67.1715 14.0423 67.1242 13.066C67.0828 12.2162 66.5912 11.7458 65.7299 11.6672C65.0803 11.6083 64.4339 11.5123 63.7245 11.4246ZM127.278 11.4065V9.1792H138.214V11.4123C137.632 11.4925 137.065 11.5857 136.494 11.6475C135.118 11.7966 134.798 12.1036 134.791 13.528C134.771 17.4148 134.782 21.3023 134.782 25.1888C134.781 25.6219 134.782 26.0551 134.782 26.5869C131.697 26.5869 128.723 26.6416 125.756 26.5345C125.236 26.5157 124.627 25.905 124.252 25.4175C121.599 21.9683 118.998 18.4797 116.38 15.0044C116.098 14.6301 115.813 14.2584 115.374 13.6829C115.312 14.1633 115.252 14.415 115.251 14.668C115.243 16.9778 115.245 19.2878 115.247 21.5979C115.249 23.6835 115.375 23.8314 117.37 24.119C117.767 24.1765 118.163 24.2322 118.676 24.3053V26.5662H107.732V24.304C108.434 24.2131 109.113 24.1131 109.796 24.0387C110.664 23.9443 111.114 23.4642 111.117 22.5937C111.125 19.4405 111.124 16.2871 111.117 13.1336C111.116 12.1948 110.6 11.7458 109.698 11.6633C109.048 11.6035 108.403 11.5039 107.7 11.4155V9.09509H109.034C112.458 9.09509 115.881 9.11871 119.304 9.0815C120.349 9.06986 121.079 9.4325 121.707 10.2814C124.362 13.8664 127.064 17.4161 129.749 20.9781C129.965 21.2651 130.19 21.5439 130.559 22.0149C130.619 21.5507 130.681 21.2968 130.682 21.0422C130.689 18.6586 130.693 16.2754 130.684 13.8919C130.677 12.0968 130.429 11.8328 128.656 11.6206C128.223 11.5686 127.794 11.4877 127.278 11.4065ZM163.085 10.2383C166.48 11.4029 168.26 14.2503 168.268 17.8425C168.276 21.4401 166.507 24.2503 163.118 25.4751C161.401 26.0955 159.523 26.517 157.707 26.5591C151.817 26.6956 145.923 26.6157 140.03 26.6167C139.889 26.6167 139.75 26.5859 139.507 26.5578V24.3147C140.169 24.2225 140.805 24.0924 141.446 24.0546C142.429 23.9963 142.933 23.4642 142.941 22.5238C142.967 19.3742 142.963 16.224 142.944 13.0741C142.939 12.2249 142.503 11.718 141.611 11.6501C141.002 11.6041 140.397 11.4996 139.746 11.4152V9.15429C140.123 9.13229 140.441 9.098 140.759 9.09768C146.18 9.09477 151.602 8.99869 157.018 9.14556C159.055 9.20087 161.158 9.5771 163.085 10.2383ZM159.972 20.4042C160.18 18.7224 160.151 16.9797 159.971 15.2907C159.826 13.9272 158.89 12.8244 157.508 12.6811C154.961 12.4177 152.388 12.408 149.784 12.2909V23.1779C152.284 23.1779 154.646 23.2659 156.999 23.1475C158.631 23.066 159.774 22.0075 159.972 20.4042ZM41.4661 18.7473C42.0241 19.249 42.3306 19.8853 42.4819 20.6097V21.3534C42.2561 22.6364 41.4349 23.5257 40.5498 24.393C39.1831 25.7326 37.8517 27.109 36.5004 28.4648C36.095 28.8715 35.7631 29.3247 35.5761 29.8717C35.5157 30.049 35.4242 30.1024 35.2433 30.1011C34.1972 30.0927 33.1512 30.0972 32.1048 30.0962C32.0598 30.0959 32.0148 30.0852 31.8728 30.0668C32.0097 29.9613 32.0868 29.9118 32.153 29.8497C34.6056 27.5471 37.0595 25.2451 39.5069 22.9359C39.7517 22.7049 39.9914 22.4533 40.1723 22.1712C40.6613 21.4084 40.4974 20.6022 39.7466 20.0963C39.4446 19.8925 39.1002 19.7369 38.7558 19.6143C30.9672 16.8399 23.1731 14.0805 15.3864 11.3013C11.6811 9.97921 7.98518 8.63023 4.29182 7.27477C3.04818 6.81832 2.07986 5.98208 1.50735 4.78416C0.948978 3.61699 0.505299 2.39384 0.0185694 1.19237C-0.0161281 1.10697 0.00893298 0.996659 0.0063628 0.898315H0.129086C0.178562 0.93293 0.224189 0.975631 0.278163 1.00054C3.85426 2.64455 7.38634 4.39467 11.0158 5.90864C20.5104 9.86987 30.0474 13.7282 39.568 17.626C40.2555 17.9075 40.907 18.2446 41.4661 18.7473ZM24.5606 18.4325C18.9249 16.9076 13.2894 15.3803 7.65331 13.857C6.65094 13.5862 5.80309 13.0676 5.15734 12.2515C4.27769 11.1393 3.60623 9.89963 3.04721 8.5969C3.03822 8.57555 3.05846 8.54159 3.0758 8.46848C3.18664 8.50665 3.28688 8.53932 3.38616 8.57588C4.75125 9.07859 6.10349 9.6211 7.48304 10.0795C17.7696 13.4966 28.0616 16.8966 38.3507 20.3052C38.6122 20.3919 38.8756 20.4903 39.1134 20.6268C39.7087 20.9687 39.7964 21.6345 39.3248 22.1414C39.1638 22.3142 38.9743 22.4604 38.8146 22.6344C38.6761 22.7852 38.5341 22.7968 38.3458 22.7464C37.1986 22.4377 36.0481 22.1404 34.8992 21.838C33.4734 21.4627 32.0479 21.0862 30.5993 20.7041C30.8358 20.2981 30.7596 20.1069 30.3455 19.995C28.4175 19.4732 26.4886 18.9543 24.5606 18.4325ZM26.3501 22.4203C21.3229 21.442 16.2969 20.4563 11.2667 19.4916C10.1933 19.2859 9.22499 18.9064 8.54838 18.0136C7.90295 17.1615 7.31212 16.2674 6.70009 15.39C6.64997 15.3179 6.62106 15.2309 6.58218 15.151L6.63937 15.0714C17.1264 17.7917 27.6134 20.5126 38.1521 23.2465C37.5764 23.7828 37.0405 24.2623 36.5303 24.7682C36.344 24.9523 36.1689 24.9808 35.9292 24.9342C33.3552 24.4344 30.7792 23.9426 28.2042 23.4477C27.7001 23.3507 27.197 23.2487 26.6756 23.1452C26.958 22.7528 26.8841 22.5442 26.4693 22.4507C26.4295 22.4413 26.3903 22.428 26.3501 22.4203ZM21.8064 25.2952C19.7489 24.9875 17.6925 24.6725 15.6315 24.3894C14.518 24.237 13.4735 23.932 12.6677 23.1074C11.9783 22.4022 11.3415 21.6439 10.6839 20.9066C10.6338 20.8503 10.6042 20.7753 10.5216 20.6359C18.9878 22.2343 27.3772 23.8187 35.7818 25.4058C35.7577 25.4537 35.7506 25.4857 35.7307 25.5042C35.0766 26.1153 34.4244 26.7286 33.7613 27.33C33.6912 27.3934 33.5544 27.419 33.4548 27.4073C32.6101 27.3083 31.7668 27.1961 30.9228 27.0883C28.8792 26.8273 26.8356 26.5672 24.792 26.3064C23.921 26.1952 23.0497 26.0839 22.1729 25.9723C22.3606 25.5013 22.2918 25.3677 21.8064 25.2952ZM31.9756 27.7635C32.3454 27.8068 32.7142 27.8573 33.1476 27.9123C32.4122 28.5997 31.725 29.2322 31.0513 29.8788C30.8823 30.0412 30.7114 30.102 30.4807 30.1017C25.6215 30.0956 20.7625 30.0972 15.9033 30.0972H15.5129C15.6071 30.0195 15.6337 29.9914 15.6655 29.9713C17.466 28.844 19.2657 27.7153 21.0713 26.5956C21.1719 26.5329 21.3238 26.5193 21.4462 26.5332C22.7593 26.6814 24.0707 26.8418 25.3831 26.9955C27.5803 27.2527 29.7784 27.5066 31.9756 27.7635Z" fill="#ED2124"/>
</svg>
