<svg width="200" height="47" viewBox="0 0 200 47" fill="none" xmlns="http://www.w3.org/2000/svg">
<path fill-rule="evenodd" clip-rule="evenodd" d="M38.6646 7.50509C42.8525 11.6917 45.2901 17.5787 45.2901 23.5006C45.2901 29.4213 42.8525 35.3083 38.6646 39.4949C34.478 43.6828 28.5923 46.1204 22.6703 46.1204C16.7484 46.1204 10.8627 43.6828 6.67482 39.4949C2.48819 35.3083 0.0493164 29.4213 0.0493164 23.5006C0.0493164 17.5787 2.48819 11.6917 6.67482 7.50509C10.8627 3.31721 16.7484 0.879578 22.6703 0.879578C28.5923 0.879578 34.478 3.31721 38.6646 7.50509ZM37.9835 38.8137C41.993 34.8043 44.327 29.1693 44.327 23.5006C44.327 17.8307 41.993 12.1957 37.9835 8.18622C33.9752 4.17674 28.339 1.8439 22.6703 1.8439C17.0004 1.8439 11.3654 4.17674 7.35596 8.18622C3.34772 12.1957 1.01239 17.8307 1.01239 23.5006C1.01239 29.1693 3.34772 34.8043 7.35596 38.8137C11.3654 42.8232 17.0004 45.1561 22.6703 45.1561C28.339 45.1561 33.9752 42.8232 37.9835 38.8137ZM36.2557 9.91402C39.8136 13.4707 41.8844 18.4694 41.8844 23.5006C41.8844 28.5306 39.8136 33.5293 36.2557 37.0872C32.7003 40.6438 27.7003 42.7134 22.6703 42.7134C17.6404 42.7134 12.6416 40.6438 9.08376 37.0872C5.52587 33.5293 3.45626 28.5306 3.45626 23.5006C3.45626 18.4694 5.52587 13.4707 9.08376 9.91402C12.6416 6.35613 17.6404 4.28652 22.6703 4.28652C27.7003 4.28652 32.7003 6.35613 36.2557 9.91402ZM38.2979 32.7459C38.3615 32.7184 38.4151 32.6698 38.4488 32.6099C38.4837 32.55 38.4987 32.4802 38.4925 32.4115C38.4862 32.3429 38.4588 32.2768 38.4126 32.2244L35.2677 28.5543C35.1916 28.4644 35.0843 28.4021 34.9683 28.3771C34.8522 28.3534 34.7287 28.3671 34.6227 28.417C34.3158 28.563 33.9628 28.6141 33.6272 28.558C33.2916 28.5006 32.9735 28.3397 32.7315 28.1014C32.4882 27.8631 32.3198 27.5488 32.2574 27.2144C32.1452 26.6131 31.9019 26.0368 31.5476 25.5378C31.1946 25.04 30.733 24.6184 30.204 24.314L28.7956 23.5006L36.8021 18.8773L35.8116 17.162L26.8146 22.3566L25.733 21.7316V20.4829L34.7287 15.2883L33.7395 13.573L25.733 18.1962V16.5682C25.733 15.9582 25.5995 15.3469 25.3438 14.7918C25.088 14.2366 24.7113 13.7376 24.2472 13.3397C23.989 13.1189 23.8006 12.8157 23.7158 12.4864C23.6309 12.157 23.6496 11.8015 23.7681 11.4821C23.8879 11.164 24.1075 10.8833 24.3869 10.69C24.4842 10.6226 24.5591 10.5228 24.5952 10.4105C24.6327 10.2982 24.6314 10.1735 24.5915 10.0625L22.986 5.50284C22.9623 5.43921 22.9198 5.38183 22.8637 5.34191C22.8076 5.30199 22.739 5.27953 22.6703 5.27953C22.6005 5.27953 22.5319 5.30199 22.477 5.34191C22.4208 5.38183 22.3772 5.43921 22.3547 5.50284L20.7492 10.0625C20.7093 10.1735 20.708 10.2982 20.7442 10.4105C20.7804 10.5228 20.8552 10.6226 20.9525 10.69C21.2332 10.8833 21.4528 11.164 21.5713 11.4821C21.691 11.8015 21.7098 12.157 21.6249 12.4864C21.5401 12.8157 21.3517 13.1189 21.0922 13.3397C20.6282 13.7376 20.2527 14.2366 19.9957 14.7918C19.7412 15.3469 19.6077 15.9582 19.6077 16.5682V18.195L11.6012 13.573L10.6107 15.2883L19.6077 20.4829V21.7316L18.5261 22.3566L9.52912 17.162L8.5386 18.8773L16.5451 23.5006L15.1367 24.314C14.6077 24.6184 14.1449 25.04 13.7918 25.5378C13.4388 26.0368 13.1943 26.6131 13.082 27.2144C13.0196 27.5488 12.8525 27.8631 12.6092 28.1014C12.3659 28.3397 12.0491 28.5006 11.7135 28.558C11.3767 28.6141 11.0249 28.563 10.718 28.417C10.6107 28.3671 10.4872 28.3534 10.3712 28.3771C10.2552 28.4021 10.1491 28.4644 10.0718 28.5543L6.92682 32.2244C6.88191 32.2768 6.85446 32.3429 6.84823 32.4115C6.84074 32.4802 6.85696 32.55 6.89189 32.6099C6.92557 32.6698 6.97921 32.7184 7.04159 32.7459C7.10396 32.7758 7.17507 32.7833 7.24244 32.7721L11.9929 31.8826C12.109 31.8614 12.2187 31.8003 12.2973 31.7129C12.3759 31.6244 12.4258 31.5108 12.4346 31.3923C12.462 31.053 12.5955 30.7224 12.8113 30.4604C13.0284 30.1985 13.3265 30.0026 13.6546 29.9115C13.9827 29.8205 14.3383 29.8329 14.6601 29.9465C15.2365 30.1486 15.8565 30.2259 16.4652 30.1698C17.074 30.1136 17.6703 29.9228 18.1993 29.6171L19.6077 28.805V38.049H21.5888V27.661L22.6703 27.036L23.7519 27.661V38.049H25.733V28.805L27.1402 29.6171C27.6703 29.9228 28.2667 30.1136 28.8742 30.1698C29.483 30.2259 30.103 30.1486 30.6806 29.9465C31.0012 29.8329 31.3567 29.8205 31.6848 29.9115C32.0129 30.0026 32.3123 30.1985 32.5281 30.4604C32.744 30.7224 32.8774 31.053 32.9049 31.3923C32.9136 31.5108 32.9635 31.6244 33.0434 31.7129C33.122 31.8003 33.2305 31.8614 33.3465 31.8826L38.097 32.7721C38.1644 32.7845 38.2367 32.7758 38.2979 32.7459ZM15.8839 26.169L18.5261 24.6446L19.6077 25.2683V26.5171L16.9655 28.0428C16.7197 28.1837 16.4178 28.2224 16.1446 28.1501C15.8714 28.0765 15.6294 27.8918 15.4885 27.6461C15.3475 27.4016 15.3063 27.0984 15.3799 26.8265C15.4535 26.552 15.6394 26.3112 15.8839 26.169ZM29.4555 26.169C29.7013 26.3112 29.8859 26.552 29.9595 26.8265C30.0331 27.0984 29.9932 27.4016 29.8522 27.6461C29.71 27.8918 29.4692 28.0765 29.1948 28.1501C28.9216 28.2224 28.6197 28.1837 28.3739 28.0428L25.733 26.5171V25.2683L26.8146 24.6446L29.4555 26.169ZM21.4253 22.782L22.6703 22.0635L23.9141 22.782V24.2192L22.6703 24.9365L21.4253 24.2192V22.782ZM23.7519 19.3389L22.6703 19.9639L21.5888 19.3389V16.2888C21.5888 16.0056 21.7048 15.7236 21.9056 15.524C22.1052 15.3244 22.3872 15.2072 22.6703 15.2072C22.9535 15.2072 23.2342 15.3244 23.4338 15.524C23.6347 15.7236 23.7519 16.0056 23.7519 16.2888V19.3389ZM153.036 42.3504V4.64954H159.637V19.0994H166.865V4.64954H173.614V42.3504H166.865V25.796H159.637V42.3504H153.036ZM56.4765 27.7671L49.1474 4.64954H55.7342L60.2465 19.3377L65.234 4.64954H71.4054L63.8093 27.0173V42.3504H56.4765V27.7671ZM95.6894 42.3504V4.64954H105.996L109.664 22.5837L112.828 4.64954H123.569V42.3504H116.639V13.5318L112.164 38.6378H106.645L101.6 13.9322V42.3504H95.6894ZM193.73 4.64954L199.951 42.3504H193.222L191.803 33.578H184.202L182.74 42.3504H176.629L183.521 4.64954H193.73ZM185.25 27.293H190.785L188.061 10.433L185.25 27.293ZM143.686 4.64954L149.906 42.3504H143.177L141.759 33.578H134.159L132.697 42.3504H126.585L133.476 4.64954H143.686ZM135.205 27.293H140.742L138.016 10.433L135.205 27.293ZM86.3393 4.64954L92.5594 42.3504H85.8303L84.4107 33.578H76.8121L75.35 42.3504H69.2385L76.1297 4.64954H86.3393ZM77.8588 27.293H83.3952L80.6694 10.433L77.8588 27.293Z" fill="#ED1E24"/>
</svg>
