<svg width="200" height="39" viewBox="0 0 200 39" fill="none" xmlns="http://www.w3.org/2000/svg">
<path fill-rule="evenodd" clip-rule="evenodd" d="M19.0279 38.9657C21.7609 35.9188 35.3649 27.5264 38.6982 27.1557C37.152 25.9313 14.7032 10.3424 14.3416 10.1446C13.6334 9.75805 14.6543 8.66096 15.5126 9.36355C16.0947 9.83877 23.2809 14.5966 24.1836 15.2412C28.7618 18.5109 36.1334 15.729 38.8426 13.7587C37.2316 12.4707 20.0272 0.871046 19.5758 0.0343018L19.6406 0.0979668C17.6477 3.29829 3.77319 11.7271 0.438721 12.0977C1.98488 13.321 23.7891 28.8326 24.1518 29.0305C25.3387 29.6773 24.2189 30.4163 23.1036 29.7467C22.459 29.3602 14.8737 23.9986 13.9221 23.4325C9.89303 21.0348 2.60562 22.7355 0.0976562 25.4038C1.70862 26.6919 18.5765 38.1266 19.0279 38.9657Z" fill="#ED1B2D"/>
<path fill-rule="evenodd" clip-rule="evenodd" d="M53.8232 22.2706C49.6054 21.3918 47.9069 18.7588 47.9069 15.8859C47.9069 11.2565 53.0365 8.64166 61.1743 8.64166C68.1149 8.64166 74.5008 10.9359 74.5008 16.1201H64.6065C64.5429 14.4216 62.0235 13.4257 60.3841 13.4836C58.6197 13.5473 57.2202 14.3488 57.2202 15.0264C57.2202 16.2951 58.6459 16.3111 59.7986 16.5885C61.9098 17.0807 66.2982 17.5525 69.1199 18.4893C72.6386 19.6637 75.1454 21.925 75.1454 24.6137C75.1454 30.0889 68.73 32.4582 60.8525 32.3456C52.6511 32.2285 47.4385 30.455 47.4385 24.6387H58.4264C58.4264 25.2572 58.8016 26.1951 59.3882 26.4293C59.9499 26.6544 61.7791 27.0409 62.8205 27.0409C64.4394 27.0409 65.4796 26.2065 65.4796 25.2185C65.4796 24.3852 64.6554 23.7576 63.1365 23.5598C61.7893 23.3836 56.1663 23.0323 53.8232 22.2706ZM102.852 24.0828C102.852 30.2958 99.0449 32.3456 89.9658 32.3456C81.537 32.3456 76.7439 30.7642 76.7439 24.0828V9.22716H85.1625V23.711C85.1625 25.9018 87.0952 26.8397 90.0056 26.8397C92.6602 26.8397 94.5349 25.7267 94.5349 23.711V9.22716H102.852V24.0828ZM104.669 26.9568L117.673 15.0264H105.255V9.22716H130.97V14.1282L117.969 26.136H130.854V31.8181H104.669V26.9568ZM159.059 24.0828C159.059 30.4129 154.16 32.3456 145.732 32.3456C137.303 32.3456 132.962 30.9984 132.962 24.0828V9.22716H141.338V23.711C141.338 25.4755 143.213 26.6635 145.79 26.6635C148.778 26.6635 150.653 25.4755 150.653 23.711V9.22716H159.059V24.0828ZM161.021 9.22716H169.515V17.1148H169.592L179.122 9.22716H190.016L177.306 20.2788L189.607 31.8772H178.622L169.592 23.9111H169.515V31.8772H161.021V9.22716ZM191.304 9.22716H199.902V31.8181H191.304V9.22716Z" fill="#005B9D"/>
</svg>
